# xmcd
#
# Track frame offsets:
#	150
#	13006
#	25805
#	36286
#	53962
#	74274
#	94442
#	107531
#	117864
#	138534
#	155843
#	176310
#	200073
#	213375
#	235118
#	247104
#	265218
#	282075
#	303544
#
# Disc length: 4353
#
# Revision: 4
# Processed by: cddbd v1.5.1PL0 Copyright (c) Steve Scherf et al.
# Submitted via: CDex 1.51
# Normalized: r3:TDELIM( - )
#
DISCID=1910ff13
DTITLE=VA - SRS - Pale Blues
DYEAR=2003
DGENRE=Blues
TTITLE0=Roy Orbison - It's Over
TTITLE1=Black Magic Woman - Fleetwood Mac
TTITLE2=Yardbirds - Honey in Your Hips
TTITLE3=John Mayall and the Bluesbreakers - Telephone Blues
TTITLE4=Allman Brothers - Every Hungry Woman
TTITLE5=Bonnie Raitt - Give It Up
TTITLE6=Mike Bloomfield, John Hammond, and Dr John - Last Night
TTITLE7=Paul Butterfield Blues Band - OK, Let's Leave the 60s
TTITLE8=Al Kooper - Alvino Johnson's Shuffle
TTITLE9=Blasters - Dark Night
TTITLE10=Charles Musselwhite - The Blues Overtook Me
TTITLE11=Bonnie Raitt - When the Spell Is Broken
TTITLE12=Delbert McClinton - Old Weakness (Coming on Strong)
TTITLE13=Roy Buchanan - Beer Drinking Woman
TTITLE14=Lonnie Mack - You Ain't Got Me
TTITLE15=Tinsley Ellis - Real Bad Way
TTITLE16=Duke Robillard - Dangerous Voice
TTITLE17=X - Shoot Out the Lights
TTITLE18=Danny Gatton - The Sun Medley
EXTD=YEAR: 2003
EXTT0=
EXTT1=
EXTT2=
EXTT3=
EXTT4=
EXTT5=
EXTT6=
EXTT7=
EXTT8=
EXTT9=
EXTT10=
EXTT11=
EXTT12=
EXTT13=
EXTT14=
EXTT15=
EXTT16=
EXTT17=
EXTT18=
PLAYORDER=
